HIERARCHY
ROOT SpineBase
{
  OFFSET 0.000000 0.000000 0.000000
  CHANNELS 6 Xposition Yposition Zposition Zrotation Xrotation Yrotation
  JOINT SpineMid
  {
    OFFSET -0.000000 28.042337 0.000000
    CHANNELS 3 Zrotation Xrotation Yrotation
    JOINT SpineShoulder
    {
      OFFSET 0.078248 21.018025 -0.520493
      CHANNELS 3 Zrotation Xrotation Yrotation
      JOINT Neck
      {
        OFFSET 0.107780 7.038888 -0.472266
        CHANNELS 3 Zrotation Xrotation Yrotation
        JOINT Head
        {
          OFFSET 2.242218 13.546423 1.172249
          CHANNELS 3 Zrotation Xrotation Yrotation
          End Site
          {
            OFFSET 0 0 0
          }
        }
      }
      JOINT ShoulderLeft
      {
        OFFSET -8.179237 -0.224796 -11.192909
        CHANNELS 3 Zrotation Xrotation Yrotation
        JOINT ElbowLeft
        {
          OFFSET -0.797448 -20.483108 -11.292971
          CHANNELS 3 Zrotation Xrotation Yrotation
          JOINT WristLeft
          {
            OFFSET 17.796643 -10.824389 -11.004449
            CHANNELS 3 Zrotation Xrotation Yrotation
            JOINT HandLeft
            {
              OFFSET 6.210009 -3.786703 -5.872297
              CHANNELS 3 Zrotation Xrotation Yrotation
              JOINT HandTipLeft
              {
                OFFSET 6.576999 -4.357177 -4.538628
                CHANNELS 3 Zrotation Xrotation Yrotation
                End Site
                {
                  OFFSET 0 0 0
                }
              }
              JOINT ThumbLeft
              {
                OFFSET 2.819122 3.674142 1.006787
                CHANNELS 3 Zrotation Xrotation Yrotation
                End Site
                {
                  OFFSET 0 0 0
                }
              }
            }
          }
        }
      }
      JOINT ShoulderRight
      {
        OFFSET 14.222232 -2.954975 11.625870
        CHANNELS 3 Zrotation Xrotation Yrotation
        JOINT ElbowRight
        {
          OFFSET 8.438380 -26.041797 2.590214
          CHANNELS 3 Zrotation Xrotation Yrotation
          JOINT WristRight
          {
            OFFSET 15.829123 -5.430482 -16.936926
            CHANNELS 3 Zrotation Xrotation Yrotation
            JOINT HandRight
            {
              OFFSET 2.245367 -2.937476 -4.624192
              CHANNELS 3 Zrotation Xrotation Yrotation
              JOINT HandTipRight
              {
                OFFSET 2.513731 -1.650795 -2.559227
                CHANNELS 3 Zrotation Xrotation Yrotation
                End Site
                {
                  OFFSET 0 0 0
                }
              }
              JOINT ThumbRight
              {
                OFFSET 4.813574 0.338572 -0.563457
                CHANNELS 3 Zrotation Xrotation Yrotation
                End Site
                {
                  OFFSET 0 0 0
                }
              }
            }
          }
        }
      }
    }
  }
  JOINT HipLeft
  {
    OFFSET -5.422029 2.272425 -7.992767
    CHANNELS 3 Zrotation Xrotation Yrotation
    JOINT KneeLeft
    {
      OFFSET 22.181148 9.276983 -28.532956
      CHANNELS 3 Zrotation Xrotation Yrotation
      JOINT AnkleLeft
      {
        OFFSET 4.323316 -31.776226 2.339935
        CHANNELS 3 Zrotation Xrotation Yrotation
        JOINT FootLeft
        {
          OFFSET 7.937656 -2.166559 -10.518779
          CHANNELS 3 Zrotation Xrotation Yrotation
          End Site
          {
            OFFSET 0 0 0
          }
        }
      }
    }
  }
  JOINT HipRight
  {
    OFFSET 6.439991 1.075721 1.748638
    CHANNELS 3 Zrotation Xrotation Yrotation
    JOINT KneeRight
    {
      OFFSET 32.338974 7.712168 -8.784717
      CHANNELS 3 Zrotation Xrotation Yrotation
      JOINT AnkleRight
      {
        OFFSET -6.236869 -32.451252 -9.802979
        CHANNELS 3 Zrotation Xrotation Yrotation
        JOINT FootRight
        {
          OFFSET 7.813660 -2.216190 -10.561976
          CHANNELS 3 Zrotation Xrotation Yrotation
          End Site
          {
            OFFSET 0 0 0
          }
        }
      }
    }
  }
}
MOTION
Frames: 9
Frame Time: 0.033333
-52.425536 26.324073 322.190295 0.000000 0.000000 -39.393748 -0.000000 0.000000 39.393748 -0.000000 0.000000 0.000000 -0.000000 0.000000 0.000000 0.000000 0.000000 0.000000 -0.000000 0.000000 0.000000 -0.000000 0.000000 0.000000 -0.000000 0.000000 0.000000 -0.000000 0.000000 0.000000 0.000000 0.000000 0.000000 0.000000 0.000000 0.000000 -0.000000 0.000000 0.000000 -0.000000 0.000000 0.000000 -0.000000 0.000000 0.000000 -0.000000 0.000000 0.000000 0.000000 0.000000 0.000000 0.000000 0.000000 0.000000 -0.000000 0.000000 39.393748 -0.000000 0.000000 0.000000 -0.000000 0.000000 0.000000 0.000000 0.000000 0.000000 -0.000000 0.000000 39.393748 -0.000000 0.000000 0.000000 -0.000000 0.000000 0.000000 0.000000 0.000000 0.000000
-52.649154 26.299581 322.468035 0.083323 -0.000643 -38.946322 -0.065207 -0.051876 38.946293 -0.000000 0.000000 0.000000 0.675622 -0.861251 0.089315 0.000000 0.000000 0.000000 1.284540 1.446606 -0.775704 -1.996402 -1.782342 0.964143 -0.209588 0.138827 0.963519 -0.388731 -0.569635 -0.957558 0.000000 0.000000 0.000000 0.000000 0.000000 0.000000 0.661596 0.925185 0.359875 -0.667480 -0.920949 -0.370581 -0.431366 -0.757476 0.098506 0.411940 -1.065892 -2.922451 0.000000 0.000000 0.000000 0.000000 0.000000 0.000000 -0.065207 -0.051876 38.946293 -0.000000 0.000000 0.000000 -0.000000 0.000000 0.000000 0.000000 0.000000 0.000000 -0.065207 -0.051876 38.946293 -0.000000 0.000000 0.000000 -0.000000 0.000000 0.000000 0.000000 0.000000 0.000000
-52.819520 26.305422 322.645756 0.212396 0.113434 -38.436007 -0.095856 -0.220887 38.435612 -0.000000 0.000000 0.000000 1.459571 -1.453700 0.133264 0.000000 0.000000 0.000000 2.496710 2.752278 -1.524897 -3.836808 -3.416382 1.856000 -0.431215 0.160974 1.755376 -0.863057 -1.086351 -1.800900 0.000000 0.000000 0.000000 0.000000 0.000000 0.000000 1.264007 1.762399 0.676015 -1.285307 -1.746928 -0.715054 -0.673103 -1.025316 0.274940 0.476001 -2.257560 -5.226535 0.000000 0.000000 0.000000 0.000000 0.000000 0.000000 -0.095856 -0.220887 38.435612 -0.000000 0.000000 0.000000 -0.000000 0.000000 0.000000 0.000000 0.000000 0.000000 -0.095856 -0.220887 38.435612 -0.000000 0.000000 0.000000 -0.000000 0.000000 0.000000 0.000000 0.000000 0.000000
-52.936636 26.341595 322.723457 0.387640 0.343190 -37.862071 -0.095409 -0.508862 37.860487 -0.000000 0.000000 0.000000 2.349792 -1.784245 0.129193 0.000000 0.000000 0.000000 3.631585 3.918481 -2.239990 -5.537028 -4.898882 2.689024 -0.631689 0.078632 2.334081 -1.392628 -1.529753 -2.497718 0.000000 0.000000 0.000000 0.000000 0.000000 0.000000 1.810515 2.513092 0.952014 -1.767496 -2.677845 -1.878303 -0.810279 -0.627373 1.385949 0.238766 -3.644129 -7.055670 0.000000 0.000000 0.000000 0.000000 0.000000 0.000000 -0.095409 -0.508862 37.860487 -0.000000 0.000000 0.000000 -0.032820 0.271034 1.140475 0.000000 0.000000 0.000000 -0.095409 -0.508862 37.860487 -0.000000 0.000000 0.000000 -0.035222 0.280260 1.143935 0.000000 0.000000 0.000000
-53.000502 26.408100 322.701140 0.609520 0.689672 -37.224582 -0.068166 -0.917877 37.220367 -0.000000 0.000000 0.000000 3.345066 -1.859247 0.072971 0.000000 0.000000 0.000000 4.685097 4.947921 -2.914344 -7.110547 -6.228200 3.475831 -0.780456 -0.094280 2.661843 -1.935850 -1.881493 -3.018758 0.000000 0.000000 0.000000 0.000000 0.000000 0.000000 2.304053 3.178814 1.191046 -2.465309 -3.548856 -2.315781 -0.530364 0.298633 1.866959 -0.277942 -5.276901 -8.518197 0.000000 0.000000 0.000000 0.000000 0.000000 0.000000 0.110280 -0.356579 37.906122 -0.485633 -0.333253 -0.685182 -0.002340 0.437865 1.586180 0.000000 0.000000 0.000000 -0.068166 -0.917877 37.220367 -0.000000 0.000000 0.000000 -0.006727 0.450635 1.591308 0.000000 0.000000 0.000000
-53.011117 26.504938 322.578803 0.878543 1.153979 -36.524522 -0.019295 -1.450182 36.515431 0.935200 0.358331 0.054354 3.508429 -2.045567 -0.073250 0.000000 0.000000 0.000000 4.721038 5.482526 -3.567061 -8.568937 -7.403907 4.228297 -0.851154 -0.342874 2.708056 -2.445456 -2.126943 -3.340438 0.000000 0.000000 0.000000 0.000000 0.000000 0.000000 1.814540 3.401250 1.352815 -3.220448 -4.411663 -2.663566 0.009645 1.791252 2.348894 -1.069505 -7.192344 -9.698068 0.000000 0.000000 0.000000 0.000000 0.000000 0.000000 0.203159 -0.888921 37.350902 -0.517306 -0.311248 -0.832336 0.047759 0.642947 2.063855 0.000000 0.000000 0.000000 -0.019295 -1.450182 36.515431 -0.000000 0.000000 0.000000 0.040784 0.659472 2.070900 0.000000 0.000000 0.000000
-52.883160 26.675641 322.220118 1.380825 1.966705 -35.469362 0.248601 -1.430728 35.469978 0.608293 0.321377 0.059872 4.755428 -2.176144 -0.254115 0.000000 0.000000 0.000000 5.435633 5.943392 -4.271658 -10.094978 -8.511683 5.448913 -1.658944 -1.696826 1.862814 -3.177992 -2.204500 -3.390477 0.000000 0.000000 0.000000 0.000000 0.000000 0.000000 2.324050 3.825769 1.733929 -5.135950 -6.270049 -3.212277 1.622669 5.401357 2.954725 -2.710361 -10.366726 -10.616744 0.000000 0.000000 0.000000 0.000000 0.000000 0.000000 0.301831 -1.878911 36.500813 -0.541067 -0.251414 -1.045330 0.142143 0.984589 2.786525 0.000000 0.000000 0.000000 -0.506068 -2.781429 34.729621 0.644480 0.013780 0.692681 0.130781 1.006794 2.796406 0.000000 0.000000 0.000000
-52.735532 26.866974 321.796001 1.827689 2.808685 -34.415051 0.240757 -1.746758 34.400896 0.702575 0.485984 0.069661 6.027492 -2.112173 -0.471044 0.000000 0.000000 0.000000 5.756068 5.996279 -4.677545 -11.397471 -9.652466 6.013914 -1.079209 -1.460192 1.739561 -3.191041 -2.583950 -4.247126 0.000000 0.000000 0.000000 0.000000 0.000000 0.000000 2.331799 3.445887 1.888229 -6.424917 -7.390702 -3.366532 3.448633 9.985161 3.660317 -5.966685 -15.272320 -12.155695 0.000000 0.000000 0.000000 0.000000 0.000000 0.000000 0.399371 -3.039677 35.575767 0.053428 -0.833411 -1.247116 -0.272413 2.082136 3.531082 0.000000 0.000000 0.000000 -0.501482 -3.575813 33.086380 0.608537 -0.126799 1.251796 0.223640 1.352173 3.478435 0.000000 0.000000 0.000000
-52.613952 27.037116 321.443565 2.197167 3.563075 -33.603451 0.225283 -1.981408 33.570040 0.741631 0.620743 0.074761 7.005545 -1.943181 -0.668546 0.000000 0.000000 0.000000 6.552815 5.449380 -5.238192 -13.315792 -10.237186 7.059873 -0.230216 -1.362624 1.025329 -4.450242 -1.261103 -0.221018 0.000000 0.000000 0.000000 0.000000 0.000000 0.000000 2.155719 2.765043 1.925117 -6.836773 -7.928613 -4.332097 4.285965 12.542506 4.563360 -7.820233 -18.545782 -14.513162 0.000000 0.000000 0.000000 0.000000 0.000000 0.000000 0.483475 -4.092723 34.874261 0.297880 -0.761474 -1.375574 -0.321080 2.477020 4.032154 0.000000 0.000000 0.000000 -0.438148 -4.247728 31.827775 0.831996 -1.103539 1.755319 0.032708 2.501999 3.893882 0.000000 0.000000 0.000000
